<?xml version="1.0" encoding="UTF-8" standalone="no"?>
<svg
   viewBox="0 0 24 24"
   version="1.1"
   id="svg4"
   sodipodi:docname="clicktest.svg"
   xml:space="preserve"
   inkscape:version="1.2 (dc2aedaf03, 2022-05-15)"
   xmlns:inkscape="http://www.inkscape.org/namespaces/inkscape"
   xmlns:sodipodi="http://sodipodi.sourceforge.net/DTD/sodipodi-0.dtd"
   xmlns="http://www.w3.org/2000/svg"
   xmlns:svg="http://www.w3.org/2000/svg"><defs
     id="defs8"><style
       type="text/css"
       id="style2661" /></defs><sodipodi:namedview
     id="namedview6"
     pagecolor="#505050"
     bordercolor="#ffffff"
     borderopacity="1"
     inkscape:showpageshadow="0"
     inkscape:pageopacity="0"
     inkscape:pagecheckerboard="1"
     inkscape:deskcolor="#505050"
     showgrid="false"
     showguides="true"
     inkscape:zoom="22.627417"
     inkscape:cx="0.19887378"
     inkscape:cy="12.153398"
     inkscape:window-width="1920"
     inkscape:window-height="1017"
     inkscape:window-x="311"
     inkscape:window-y="1432"
     inkscape:window-maximized="1"
     inkscape:current-layer="svg4" /><path
     id="path3210"
     style="display:inline;fill:#29b6f6;fill-opacity:1;stroke-width:18.8976"
     d="m 12,2.000001 a 10,9.999999 0 0 0 -9.9999996,10 10,9.999999 0 0 0 9.9999996,10 10,9.999999 0 0 0 10,-10 10,9.999999 0 0 0 -10,-10 z M 14.574218,4.359376 16.308593,5.0761729 9.3027344,19.640626 7.5898434,18.923829 Z M 8.8613284,4.4726572 c 0.601709,0 1.12294,0.1317711 1.5605466,0.3984376 0.437606,0.2598288 0.771427,0.633671 1.003906,1.1191406 0.232478,0.4854696 0.349609,1.0515999 0.349609,1.7011718 0,0.6427345 -0.117131,1.2078898 -0.349609,1.6933594 -0.232479,0.478632 -0.5663,0.8505214 -1.003906,1.1171874 -0.4376066,0.259829 -0.9588376,0.390625 -1.5605466,0.390625 -0.608547,0 -1.133681,-0.130796 -1.578125,-0.390625 C 6.8455964,10.235288 6.5098224,9.8633986 6.2773434,9.3847666 6.0448654,8.899297 5.9296874,8.3341417 5.9296874,7.6914072 c 0,-0.6222215 0.115178,-1.1746866 0.347656,-1.6601562 0.232479,-0.4923072 0.571181,-0.8749335 1.015625,-1.1484375 0.444444,-0.273504 0.966651,-0.4101563 1.56836,-0.4101563 z m 0,1.5898438 c -0.321367,0 -0.540011,0.1317711 -0.65625,0.3984375 -0.109402,0.2666664 -0.164063,0.6766232 -0.164063,1.2304687 0,0.5264953 0.06247,0.9276679 0.185547,1.2011719 0.123077,0.273504 0.333911,0.4101563 0.634766,0.4101563 0.321367,0 0.537083,-0.1307962 0.646484,-0.390625 0.116239,-0.2598288 0.175781,-0.6668576 0.175781,-1.2207032 0,-0.5811959 -0.059542,-0.9970087 -0.175781,-1.25 C 9.3984114,6.188416 9.1826954,6.062501 8.8613284,6.062501 Z m 6.2988276,6.685547 c 0.601709,0 1.120987,0.133724 1.558594,0.400391 0.437606,0.259828 0.773381,0.633671 1.005859,1.11914 0.232478,0.48547 0.347656,1.0516 0.347656,1.701172 0,0.642734 -0.115178,1.20789 -0.347656,1.693359 -0.232478,0.478632 -0.568253,0.850521 -1.005859,1.117188 -0.437607,0.259829 -0.956885,0.390625 -1.558594,0.390625 -0.608547,0 -1.135634,-0.130796 -1.580078,-0.390625 -0.437607,-0.266667 -0.773381,-0.638556 -1.00586,-1.117188 -0.232478,-0.485469 -0.347656,-1.050625 -0.347656,-1.693359 0,-0.622222 0.115178,-1.174687 0.347656,-1.660156 0.232479,-0.492307 0.571181,-0.876887 1.015625,-1.150391 0.444444,-0.273504 0.968604,-0.410156 1.570313,-0.410156 z m 0,1.589844 c -0.321367,0 -0.540011,0.133724 -0.65625,0.40039 -0.109402,0.266667 -0.164063,0.676623 -0.164063,1.230469 0,0.526495 0.06052,0.927668 0.183594,1.201172 0.123077,0.273504 0.335864,0.410156 0.636719,0.410156 0.321367,0 0.537083,-0.130796 0.646484,-0.390625 0.116239,-0.259829 0.173828,-0.666857 0.173828,-1.220703 0,-0.581196 -0.05759,-0.997009 -0.173828,-1.25 -0.109401,-0.252991 -0.325117,-0.380859 -0.646484,-0.380859 z" /></svg>
